<?xml version="1.0" encoding="UTF-8" standalone="no"?>
<!-- Created with Inkscape (http://www.inkscape.org/) -->

<svg
   xmlns:dc="http://purl.org/dc/elements/1.1/"
   xmlns:cc="http://creativecommons.org/ns#"
   xmlns:rdf="http://www.w3.org/1999/02/22-rdf-syntax-ns#"
   xmlns:svg="http://www.w3.org/2000/svg"
   xmlns="http://www.w3.org/2000/svg"
   xmlns:sodipodi="http://sodipodi.sourceforge.net/DTD/sodipodi-0.dtd"
   xmlns:inkscape="http://www.inkscape.org/namespaces/inkscape"
   width="198.63025mm"
   height="226.8212mm"
   viewBox="0 0 703.80797 803.69715"
   id="svg4456"
   version="1.1"
   inkscape:version="0.91 r13725"
   inkscape:export-filename="/home/almuez/aosus_group.png"
   inkscape:export-xdpi="40.719601"
   inkscape:export-ydpi="40.719601"
   sodipodi:docname="صورة_المجموعة.svg">
  <defs
     id="defs4458" />
  <sodipodi:namedview
     id="base"
     pagecolor="#ffffff"
     bordercolor="#666666"
     borderopacity="1.0"
     inkscape:pageopacity="0.0"
     inkscape:pageshadow="2"
     inkscape:zoom="0.35355339"
     inkscape:cx="569.34874"
     inkscape:cy="232.04982"
     inkscape:document-units="px"
     inkscape:current-layer="layer1"
     showgrid="false"
     showborder="true"
     inkscape:window-width="1600"
     inkscape:window-height="834"
     inkscape:window-x="0"
     inkscape:window-y="27"
     inkscape:window-maximized="1"
     fit-margin-top="0"
     fit-margin-left="0"
     fit-margin-right="0"
     fit-margin-bottom="0" />
  <metadata
     id="metadata4461">
    <rdf:RDF>
      <cc:Work
         rdf:about="">
        <dc:format>image/svg+xml</dc:format>
        <dc:type
           rdf:resource="http://purl.org/dc/dcmitype/StillImage" />
        <dc:title></dc:title>
      </cc:Work>
    </rdf:RDF>
  </metadata>
  <g
     inkscape:label="Layer 1"
     inkscape:groupmode="layer"
     id="layer1"
     transform="translate(-18.78737,-109.65074)">
    <g
       id="g4293"
       transform="matrix(1.0830445,0,0,1.0830445,-15.621233,-42.477173)">
      <rect
         y="140.46321"
         x="31.770258"
         height="742.07214"
         width="649.84216"
         id="rect4202"
         style="opacity:1;fill:#ffffff;fill-opacity:1;fill-rule:nonzero;stroke:none;stroke-width:0.40000001;stroke-linecap:butt;stroke-linejoin:miter;stroke-miterlimit:4;stroke-dasharray:none;stroke-dashoffset:0;stroke-opacity:1" />
      <g
         transform="translate(6.0000098,11.812634)"
         id="g4230">
        <g
           transform="matrix(1.9252683,0,0,1.9252683,-436.40878,-72.558106)"
           id="g4543">
          <g
             id="g4545">
            <g
               id="g4547">
              <circle
                 cx="408.034"
                 cy="261.77301"
                 r="21.892"
                 id="circle4549"
                 style="fill:#092f4b" />
            </g>
            <g
               id="g4551">
              <path
                 d="m 408.033,284.165 c -12.346,0 -22.391,-10.045 -22.391,-22.392 0,-12.347 10.045,-22.392 22.391,-22.392 12.348,0 22.393,10.045 22.393,22.392 0,12.347 -10.045,22.392 -22.393,22.392 z m 0,-43.783 c -11.795,0 -21.391,9.596 -21.391,21.392 0,11.795 9.596,21.392 21.391,21.392 11.797,0 21.393,-9.597 21.393,-21.392 0,-11.796 -9.596,-21.392 -21.393,-21.392 z"
                 id="path4553"
                 inkscape:connector-curvature="0"
                 style="fill:#092f4b" />
            </g>
          </g>
          <g
             id="g4555">
            <g
               id="g4557">
              <path
                 d="m 408.033,289.387 c -15.249,0 -27.611,-12.363 -27.611,-27.613 0,-15.25 12.362,-27.612 27.611,-27.612 15.252,0 27.614,12.362 27.614,27.612 0,2.474 -0.33,4.868 -0.939,7.149 l 21.005,21.217 c 4.95,-8.301 7.796,-18 7.796,-28.366 0,-30.638 -24.836,-55.475 -55.476,-55.475 -30.637,0 -55.474,24.837 -55.474,55.475 0,30.638 24.837,55.474 55.474,55.474 11.486,0 22.156,-3.49 31.009,-9.468 l -20.331,-20.534 c -3.285,1.377 -6.891,2.141 -10.678,2.141 z"
                 id="path4559"
                 inkscape:connector-curvature="0"
                 style="fill:#008a2e" />
            </g>
          </g>
          <g
             id="g4561">
            <g
               id="g4563">
              <path
                 d="m 433.813,271.671 c -0.519,1.352 -1.142,2.649 -1.856,3.888 l 19.263,19.225 2.78,-2.967 -20.187,-20.146 z"
                 id="path4565"
                 inkscape:connector-curvature="0"
                 style="fill:#092f4b" />
            </g>
            <g
               id="g4567">
              <path
                 d="m 420.945,286.182 19.81,19.77 2.779,-2.967 -19.063,-19.024 c -1.114,0.825 -2.293,1.567 -3.526,2.221 z"
                 id="path4569"
                 inkscape:connector-curvature="0"
                 style="fill:#092f4b" />
            </g>
            <g
               id="g4571">
              <path
                 d="m 425.297,283.317 18.948,18.908 2.779,-2.966 -18.749,-18.712 c -0.923,0.996 -1.918,1.921 -2.978,2.77 z"
                 id="path4573"
                 inkscape:connector-curvature="0"
                 style="fill:#092f4b" />
            </g>
            <g
               id="g4575">
              <path
                 d="m 428.965,279.771 18.769,18.73 2.78,-2.966 -19.105,-19.067 c -0.734,1.164 -1.552,2.267 -2.444,3.303 z"
                 id="path4577"
                 inkscape:connector-curvature="0"
                 style="fill:#092f4b" />
            </g>
          </g>
          <g
             id="g4579">
            <rect
               x="442.36899"
               y="304.69699"
               transform="matrix(0.7071,0.7071,-0.7071,0.7071,347.04,-224.395)"
               width="4.04"
               height="4.04"
               id="rect4581"
               style="fill:#008a2e" />
          </g>
          <g
             id="g4583">
            <rect
               x="445.875"
               y="308.203"
               transform="matrix(0.7072,0.707,-0.707,0.7072,350.4543,-225.8308)"
               width="4.04"
               height="4.04"
               id="rect4585"
               style="fill:#008a2e" />
          </g>
          <g
             id="g4587">
            <rect
               x="452.90799"
               y="315.23599"
               transform="matrix(0.707,0.7072,-0.7072,0.707,357.6724,-228.777)"
               width="4.04"
               height="4.04"
               id="rect4589"
               style="fill:#008a2e" />
          </g>
          <g
             id="g4591">
            <rect
               x="446.02399"
               y="301.077"
               transform="matrix(0.7071,0.7071,-0.7071,0.7071,345.5513,-228.0393)"
               width="4.04"
               height="4.04"
               id="rect4593"
               style="fill:#008a2e" />
          </g>
          <g
             id="g4595">
            <rect
               x="452.91199"
               y="307.96701"
               transform="matrix(0.707,0.7072,-0.7072,0.707,352.5332,-230.9103)"
               width="4.04"
               height="4.04"
               id="rect4597"
               style="fill:#008a2e" />
          </g>
          <g
             id="g4599">
            <rect
               x="460.01901"
               y="315.07401"
               transform="matrix(0.7071,0.7071,-0.7071,0.7071,359.5474,-233.8367)"
               width="4.0409999"
               height="4.04"
               id="rect4601"
               style="fill:#008a2e" />
          </g>
          <g
             id="g4603">
            <rect
               x="449.578"
               y="297.53101"
               transform="matrix(0.707,0.7072,-0.7072,0.707,344.1754,-231.6105)"
               width="4.04"
               height="4.04"
               id="rect4605"
               style="fill:#008a2e" />
          </g>
          <g
             id="g4607">
            <rect
               x="453.172"
               y="293.862"
               transform="matrix(0.7071,0.7071,-0.7071,0.7071,342.5427,-235.2075)"
               width="4.04"
               height="4.04"
               id="rect4609"
               style="fill:#008a2e" />
          </g>
          <g
             id="g4611">
            <rect
               x="453.13501"
               y="301.08801"
               transform="matrix(0.7071,0.7071,-0.7071,0.7071,347.6412,-233.0653)"
               width="4.04"
               height="4.04"
               id="rect4613"
               style="fill:#008a2e" />
          </g>
          <g
             id="g4615">
            <rect
               x="460.026"
               y="307.978"
               transform="matrix(0.7071,0.7071,-0.7071,0.7071,354.5318,-235.9194)"
               width="4.04"
               height="4.04"
               id="rect4617"
               style="fill:#008a2e" />
          </g>
          <g
             id="g4619">
            <rect
               x="456.729"
               y="297.41901"
               transform="matrix(0.707,0.7072,-0.7072,0.707,346.1918,-236.7001)"
               width="4.04"
               height="4.04"
               id="rect4621"
               style="fill:#008a2e" />
          </g>
          <g
             id="g4623">
            <rect
               x="460.21799"
               y="300.90799"
               transform="matrix(0.7071,0.7071,-0.7071,0.7071,349.5886,-238.126)"
               width="4.04"
               height="4.04"
               id="rect4625"
               style="fill:#008a2e" />
          </g>
        </g>
        <g
           id="g4210">
          <g
             transform="translate(0,9.6697798)"
             id="g4201">
            <text
               xml:space="preserve"
               style="font-style:normal;font-variant:normal;font-weight:normal;font-stretch:normal;font-size:80.25940704px;line-height:125%;font-family:'Ara Hamah AlHorra';-inkscape-font-specification:'Ara Hamah AlHorra, Normal';text-align:start;letter-spacing:0px;word-spacing:0px;writing-mode:lr-tb;text-anchor:start;fill:#008000;fill-opacity:1;stroke:none;stroke-width:1px;stroke-linecap:butt;stroke-linejoin:miter;stroke-opacity:1"
               x="358.09503"
               y="620.15448"
               id="text4136"
               sodipodi:linespacing="125%"><tspan
                 sodipodi:role="line"
                 id="tspan4138"
                 x="358.09503"
                 y="620.15448">مجتمع </tspan></text>
            <g
               id="g5262"
               transform="matrix(1.1389117,0,0,1.1389117,-49.548784,-71.331045)">
              <path
                 id="path4200"
                 d="m 341.32107,560.41281 c 0,-4.47516 5.07184,-5.74312 8.12986,-5.74312 l 0,-3.43095 c -9.54699,0 -12.00833,5.89228 -12.00833,10.5912 0,0.67127 0.0746,1.26796 0.29834,1.86465 l 12.00834,0 0,-3.28178 -8.42821,0 z"
                 style="font-style:normal;font-variant:normal;font-weight:normal;font-stretch:normal;font-size:medium;line-height:125%;font-family:'Ara Hamah AlHorra';-inkscape-font-specification:'Ara Hamah AlHorra, Normal';text-align:start;letter-spacing:0px;word-spacing:0px;writing-mode:lr-tb;text-anchor:start;fill:#008000;fill-opacity:1;stroke:none;stroke-width:1px;stroke-linecap:butt;stroke-linejoin:miter;stroke-opacity:1"
                 inkscape:connector-curvature="0" />
              <path
                 id="path4189"
                 d="m 349.15259,618.06773 0,-50.19633 -10.81496,0 0,50.19633 10.81496,0 z"
                 style="font-style:normal;font-variant:normal;font-weight:normal;font-stretch:normal;font-size:medium;line-height:125%;font-family:'Ara Hamah AlHorra';-inkscape-font-specification:'Ara Hamah AlHorra, Normal';text-align:start;letter-spacing:0px;word-spacing:0px;writing-mode:lr-tb;text-anchor:start;fill:#00112b;fill-opacity:1;stroke:none;stroke-width:1px;stroke-linecap:butt;stroke-linejoin:miter;stroke-opacity:1"
                 inkscape:connector-curvature="0" />
              <path
                 d="m 282.51181,607.10359 0,10.96414 49.74881,0 0,-33.11615 -10.81496,0 0,22.15201 -5.8177,0 0,-19.76526 -10.81496,0 -0.0746,19.76526 -5.96687,0 0,-16.18514 -10.81496,0 -0.0745,16.18514 -5.37019,0 z"
                 style="font-style:normal;font-variant:normal;font-weight:normal;font-stretch:normal;font-size:medium;line-height:125%;font-family:'Ara Hamah AlHorra';-inkscape-font-specification:'Ara Hamah AlHorra, Normal';text-align:start;letter-spacing:0px;word-spacing:0px;writing-mode:lr-tb;text-anchor:start;fill:#00112b;fill-opacity:1;stroke:none;stroke-width:1px;stroke-linecap:butt;stroke-linejoin:miter;stroke-opacity:1"
                 id="path4191"
                 inkscape:connector-curvature="0" />
              <path
                 d="m 285.50165,618.06773 0,-10.96414 -5.44476,0 0,-22.07743 -10.81496,0 0,22.07743 -5.74312,0 -0.0746,-19.76526 -10.81496,0 -0.0745,19.76526 -5.96688,0 0,-16.18514 -10.81496,0 0,17.67687 c 0,6.3398 -3.1326,9.54699 -9.47242,9.54699 -6.3398,0 -9.4724,-3.20719 -9.4724,-9.54699 0,-0.5221 0.0746,-0.96962 0.14917,-1.49173 l -10.96414,0 -0.0745,1.49173 c -0.29835,5.66852 2.01382,10.51661 5.96688,14.46966 3.95305,3.95306 8.80114,5.96688 14.39507,5.96688 8.35364,0 14.39509,-3.65471 18.12439,-10.96413 l 41.09684,0 z"
                 style="font-style:normal;font-variant:normal;font-weight:normal;font-stretch:normal;font-size:medium;line-height:125%;font-family:'Ara Hamah AlHorra';-inkscape-font-specification:'Ara Hamah AlHorra, Normal';text-align:start;letter-spacing:0px;word-spacing:0px;writing-mode:lr-tb;text-anchor:start;fill:#00112b;fill-opacity:1;stroke:none;stroke-width:1px;stroke-linecap:butt;stroke-linejoin:miter;stroke-opacity:1"
                 id="path4193"
                 inkscape:connector-curvature="0" />
            </g>
          </g>
          <g
             transform="matrix(0.93442684,0,0,0.93442684,7.7846468,66.404173)"
             id="g5277">
            <path
               inkscape:connector-curvature="0"
               id="path5508"
               style="font-style:normal;font-variant:normal;font-weight:normal;font-stretch:normal;font-size:medium;line-height:125%;font-family:Quicksand;-inkscape-font-specification:'Quicksand, Normal';text-align:start;letter-spacing:0px;word-spacing:0px;writing-mode:lr-tb;text-anchor:start;fill:#008000;fill-opacity:1;stroke:none;stroke-width:1px;stroke-linecap:butt;stroke-linejoin:miter;stroke-opacity:1"
               d="m 248.23154,631.70488 q 0.20078,-0.20071 0.4876,-0.20071 0.28682,0 0.4876,0.20071 0.20078,0.20071 0.20078,0.4876 l 0,12.67765 q 0,0.28682 -0.20078,0.4876 -0.20077,0.20071 -0.4876,0.20071 -0.28682,0 -0.4876,-0.20071 -0.20078,-0.20071 -0.20078,-0.4876 l 0,-2.09381 q -0.91783,1.2907 -2.32327,2.03644 -1.37676,0.74575 -2.95429,0.74575 -2.75352,0 -4.70392,-2.06514 -1.9504,-2.06514 -1.9504,-4.96206 0,-2.89693 1.9504,-4.96207 1.9504,-2.06514 4.70392,-2.06514 1.57753,0 2.95429,0.74577 1.40544,0.74574 2.32327,2.00775 l 0,-2.06514 q 0,-0.2868 0.20078,-0.4876 z m -10.75591,6.82643 q 0,2.35195 1.54885,4.01554 1.57753,1.6349 3.72872,1.6349 2.17986,0 3.72871,-1.6349 1.54885,-1.66359 1.54885,-4.01554 0,-2.35196 -1.54885,-4.01555 -1.54885,-1.66357 -3.72871,-1.66357 -2.15119,0 -3.72872,1.66357 -1.54885,1.66359 -1.54885,4.01555 z" />
            <path
               inkscape:connector-curvature="0"
               id="path5510"
               style="font-style:normal;font-variant:normal;font-weight:normal;font-stretch:normal;font-size:medium;line-height:125%;font-family:Quicksand;-inkscape-font-specification:'Quicksand, Normal';text-align:start;letter-spacing:0px;word-spacing:0px;writing-mode:lr-tb;text-anchor:start;fill:#008000;fill-opacity:1;stroke:none;stroke-width:1px;stroke-linecap:butt;stroke-linejoin:miter;stroke-opacity:1"
               d="m 273.86646,643.49337 q -1.95041,-2.09381 -1.95041,-4.96206 0,-2.86824 1.95041,-4.93338 1.9504,-2.09383 4.70392,-2.09383 2.75351,0 4.70391,2.09383 1.95041,2.06514 1.95041,4.93338 0,2.86825 -1.95041,4.96206 -1.9504,2.06514 -4.70391,2.06514 -2.75352,0 -4.70392,-2.06514 z m 4.70392,-10.64118 q -2.15119,0 -3.72872,1.66357 -1.54885,1.66359 -1.54885,4.01555 0,2.32328 1.54885,3.98685 1.57753,1.66359 3.72872,1.66359 2.15118,0 3.70003,-1.66359 1.57753,-1.66357 1.57753,-3.98685 0,-2.35196 -1.57753,-4.01555 -1.54885,-1.66357 -3.70003,-1.66357 z" />
            <path
               inkscape:connector-curvature="0"
               id="path5512"
               style="font-style:normal;font-variant:normal;font-weight:normal;font-stretch:normal;font-size:medium;line-height:125%;font-family:Quicksand;-inkscape-font-specification:'Quicksand, Normal';text-align:start;letter-spacing:0px;word-spacing:0px;writing-mode:lr-tb;text-anchor:start;fill:#008000;fill-opacity:1;stroke:none;stroke-width:1px;stroke-linecap:butt;stroke-linejoin:miter;stroke-opacity:1"
               d="m 306.86739,643.55073 q -0.48761,-0.43025 -0.0861,-0.91783 0.17209,-0.22947 0.45892,-0.25816 0.28683,-0.0287 0.51629,0.1722 2.23722,1.63489 4.0729,1.63489 1.83568,0 2.89693,-0.86046 1.06125,-0.71707 1.03256,-1.66359 0,-0.97521 -0.94652,-1.72095 -0.91783,-0.74574 -3.01165,-1.08993 l -0.0574,-0.0287 q -2.23723,-0.40156 -3.18375,-1.08994 -1.52017,-0.88915 -1.52017,-2.52405 0,-1.63489 1.52017,-2.7535 1.37675,-0.94653 3.44189,-0.94653 0.83179,0 1.66358,0.28682 0.86047,0.25814 1.29071,0.5163 0.45892,0.22945 1.23334,0.71705 0.22946,0.17219 0.28683,0.45891 0.0574,0.28683 -0.0861,0.5163 -0.14341,0.22947 -0.43023,0.28683 -0.28683,0.0573 -0.51629,-0.086 -0.71706,-0.48761 -1.08993,-0.68838 -0.34419,-0.22947 -1.03256,-0.45891 -0.68838,-0.25814 -1.3194,-0.25814 -1.66358,0 -2.6101,0.77441 -0.94652,0.74574 -0.94652,1.57754 0,0.83179 0.80311,1.46281 1.00389,0.68838 2.86824,0.97518 l 0.0574,0 q 1.86436,0.28683 3.41321,1.14732 1.57753,1.03257 1.57753,2.78219 0,1.72095 -1.57753,2.89693 -1.54885,1.14729 -3.52794,1.14729 -2.72483,-0.0287 -5.19152,-2.00777 z" />
            <path
               inkscape:connector-curvature="0"
               id="path5514"
               style="font-style:normal;font-variant:normal;font-weight:normal;font-stretch:normal;font-size:medium;line-height:125%;font-family:Quicksand;-inkscape-font-specification:'Quicksand, Normal';text-align:start;letter-spacing:0px;word-spacing:0px;writing-mode:lr-tb;text-anchor:start;fill:#008000;fill-opacity:1;stroke:none;stroke-width:1px;stroke-linecap:butt;stroke-linejoin:miter;stroke-opacity:1"
               d="m 338.84112,639.82202 0,-7.65821 q 0,-0.28683 0.20077,-0.4876 0.20078,-0.20071 0.4876,-0.20071 0.28683,0 0.4876,0.20071 0.20078,0.20071 0.20078,0.4876 l 0,7.65821 q 0,1.80698 1.26203,3.06902 1.26202,1.26201 3.04033,1.29071 1.807,-0.0287 3.06902,-1.29071 1.29071,-1.26204 1.29071,-3.06902 l 0,-7.65821 q 0,-0.28683 0.20078,-0.4876 0.22946,-0.20071 0.51628,-0.20071 0.28683,0 0.4876,0.20071 0.20078,0.20071 0.20078,0.4876 l 0,7.65821 q 0,2.38064 -1.69226,4.0729 -1.66359,1.66359 -4.04423,1.66359 -2.38064,0 -4.04422,-1.66359 -1.66358,-1.69226 -1.66358,-4.0729 z" />
            <path
               inkscape:connector-curvature="0"
               id="path5516"
               style="font-style:normal;font-variant:normal;font-weight:normal;font-stretch:normal;font-size:medium;line-height:125%;font-family:Quicksand;-inkscape-font-specification:'Quicksand, Normal';text-align:start;letter-spacing:0px;word-spacing:0px;writing-mode:lr-tb;text-anchor:start;fill:#008000;fill-opacity:1;stroke:none;stroke-width:1px;stroke-linecap:butt;stroke-linejoin:miter;stroke-opacity:1"
               d="m 373.02744,643.55073 q -0.4876,-0.43025 -0.0861,-0.91783 0.1721,-0.22947 0.45891,-0.25816 0.28683,-0.0287 0.51629,0.1722 2.23723,1.63489 4.0729,1.63489 1.83568,0 2.89693,-0.86046 1.06125,-0.71707 1.03257,-1.66359 0,-0.97521 -0.94652,-1.72095 -0.91784,-0.74574 -3.01166,-1.08993 l -0.0574,-0.0287 q -2.23723,-0.40156 -3.18375,-1.08994 -1.52017,-0.88915 -1.52017,-2.52405 0,-1.63489 1.52017,-2.7535 1.37676,-0.94653 3.44189,-0.94653 0.83179,0 1.66358,0.28682 0.86048,0.25814 1.29071,0.5163 0.45892,0.22945 1.23335,0.71705 0.22946,0.17219 0.28682,0.45891 0.0574,0.28683 -0.0861,0.5163 -0.14342,0.22947 -0.43024,0.28683 -0.28682,0.0573 -0.51628,-0.086 -0.71706,-0.48761 -1.08993,-0.68838 -0.34419,-0.22947 -1.03257,-0.45891 -0.68838,-0.25814 -1.31939,-0.25814 -1.66358,0 -2.6101,0.77441 -0.94652,0.74574 -0.94652,1.57754 0,0.83179 0.8031,1.46281 1.00389,0.68838 2.86825,0.97518 l 0.0574,0 q 1.86435,0.28683 3.4132,1.14732 1.57754,1.03257 1.57754,2.78219 0,1.72095 -1.57754,2.89693 -1.54885,1.14729 -3.52793,1.14729 -2.72483,-0.0287 -5.19152,-2.00777 z" />
            <path
               inkscape:connector-curvature="0"
               id="path5518"
               style="font-style:normal;font-variant:normal;font-weight:normal;font-stretch:normal;font-size:medium;line-height:125%;font-family:Quicksand;-inkscape-font-specification:'Quicksand, Normal';text-align:start;letter-spacing:0px;word-spacing:0px;writing-mode:lr-tb;text-anchor:start;fill:#000000;fill-opacity:1;stroke:none;stroke-width:1px;stroke-linecap:butt;stroke-linejoin:miter;stroke-opacity:1"
               d="m 396.74691,645.15695 q -0.40155,-0.43024 -0.40155,-1.03257 0,-0.60232 0.40155,-1.0039 0.43024,-0.43022 1.03257,-0.43022 0.60233,0 1.00388,0.43022 0.43024,0.40158 0.43024,1.0039 0,0.60233 -0.43024,1.03257 -0.40155,0.40156 -1.00388,0.40156 -0.60233,0 -1.03257,-0.40156 z" />
            <path
               inkscape:connector-curvature="0"
               id="path5520"
               style="font-style:normal;font-variant:normal;font-weight:normal;font-stretch:normal;font-size:medium;line-height:125%;font-family:Quicksand;-inkscape-font-specification:'Quicksand, Normal';text-align:start;letter-spacing:0px;word-spacing:0px;writing-mode:lr-tb;text-anchor:start;fill:#00112b;fill-opacity:1;stroke:none;stroke-width:1px;stroke-linecap:butt;stroke-linejoin:miter;stroke-opacity:1"
               d="m 421.81625,643.49337 q -1.95041,-2.09381 -1.95041,-4.96206 0,-2.86824 1.95041,-4.93338 1.9504,-2.09383 4.70391,-2.09383 2.75352,0 4.70392,2.09383 1.95041,2.06514 1.95041,4.93338 0,2.86825 -1.95041,4.96206 -1.9504,2.06514 -4.70392,2.06514 -2.75351,0 -4.70391,-2.06514 z m 4.70391,-10.64118 q -2.15118,0 -3.72871,1.66357 -1.54885,1.66359 -1.54885,4.01555 0,2.32328 1.54885,3.98685 1.57753,1.66359 3.72871,1.66359 2.15119,0 3.70004,-1.66359 1.57753,-1.66357 1.57753,-3.98685 0,-2.35196 -1.57753,-4.01555 -1.54885,-1.66357 -3.70004,-1.66357 z" />
            <path
               inkscape:connector-curvature="0"
               id="path5522"
               style="font-style:normal;font-variant:normal;font-weight:normal;font-stretch:normal;font-size:medium;line-height:125%;font-family:Quicksand;-inkscape-font-specification:'Quicksand, Normal';text-align:start;letter-spacing:0px;word-spacing:0px;writing-mode:lr-tb;text-anchor:start;fill:#00112b;fill-opacity:1;stroke:none;stroke-width:1px;stroke-linecap:butt;stroke-linejoin:miter;stroke-opacity:1"
               d="m 455.70632,644.87013 0,-12.64896 q 0,-0.28682 0.20078,-0.4876 0.20078,-0.20071 0.4876,-0.20071 0.28682,0 0.4876,0.20071 0.20078,0.20071 0.20078,0.4876 l 0,3.09771 q 0.11473,-0.22946 0.20078,-0.34419 2.20854,-3.4419 5.62175,-3.4419 0.28683,0 0.4876,0.20072 0.20078,0.20071 0.20078,0.4876 0,0.28683 -0.20078,0.4876 -0.20077,0.20071 -0.4876,0.20071 -2.29459,0 -4.0729,2.29459 -1.03257,1.37676 -1.69227,3.26979 -0.0574,0.11473 -0.0574,0.22947 l 0,6.16673 q 0,0.28682 -0.20078,0.4876 -0.20078,0.20071 -0.4876,0.20071 -0.28682,0 -0.4876,-0.20071 -0.20078,-0.20071 -0.20078,-0.4876 z" />
            <path
               inkscape:connector-curvature="0"
               id="path5524"
               style="font-style:normal;font-variant:normal;font-weight:normal;font-stretch:normal;font-size:medium;line-height:125%;font-family:Quicksand;-inkscape-font-specification:'Quicksand, Normal';text-align:start;letter-spacing:0px;word-spacing:0px;writing-mode:lr-tb;text-anchor:start;fill:#00112b;fill-opacity:1;stroke:none;stroke-width:1px;stroke-linecap:butt;stroke-linejoin:miter;stroke-opacity:1"
               d="m 497.84126,632.19248 0,12.2474 q 0,2.72483 -1.95041,4.64656 -1.92172,1.95041 -4.67524,1.95041 -1.40543,0 -2.9256,-0.65971 -0.57365,-0.40155 -0.28683,-0.91782 0.31551,-0.65971 0.91784,-0.31552 1.08993,0.51629 2.29459,0.51629 2.17987,0 3.70004,-1.52017 1.54885,-1.52018 1.54885,-3.70004 l 0,-1.72095 q -0.88916,1.29071 -2.26591,2.03647 -1.37676,0.71705 -2.98298,0.71705 -2.75351,0 -4.67523,-2.03645 -1.92172,-2.06513 -1.92172,-4.93338 0,-2.89693 1.92172,-4.93338 1.9504,-2.06514 4.67523,-2.06514 1.57754,0 2.9543,0.74577 1.40543,0.74574 2.29459,2.00775 l 0,-2.06514 q 0,-0.2868 0.20077,-0.4876 0.22946,-0.20071 0.48761,-0.20071 0.28682,0 0.4876,0.20071 0.20077,0.20071 0.20077,0.4876 z m -11.84585,6.31014 q 0,2.32328 1.52017,3.98687 1.54885,1.63489 3.70003,1.63489 2.17987,0 3.70004,-1.63489 1.54885,-1.66359 1.54885,-4.01556 0,-2.35194 -1.54885,-3.95817 -1.52017,-1.6349 -3.70004,-1.6349 -2.15118,0 -3.70003,1.6349 -1.52017,1.6349 -1.52017,3.98686 z" />
          </g>
        </g>
      </g>
    </g>
  </g>
</svg>
